<svg xmlns="http://www.w3.org/2000/svg" viewBox="0 0 25.19 42.24"><defs><style>.cls-1{fill:#fbba00;}.cls-1,.cls-2,.cls-3,.cls-4,.cls-5,.cls-6,.cls-7{stroke:#1d1d1b;stroke-linejoin:round;stroke-width:0.5px;}.cls-2{fill:#702283;}.cls-3{fill:#010101;}.cls-3,.cls-7{stroke-linecap:round;}.cls-4{fill:#946a1d;}.cls-5{fill:#a48213;}.cls-6{fill:#265aa6;}.cls-7{fill:#1560a5;}</style></defs><title>Ativo 2</title><g id="Camada_2" data-name="Camada 2"><g id="Camada_1-2" data-name="Camada 1"><polygon class="cls-1" points="3.78 29.78 3.78 33.85 2.01 34.86 2.01 28.76 3.78 29.78"/><polygon class="cls-1" points="19.65 20.61 24.94 17.56 24.94 11.45 19.65 14.5 19.65 20.61"/><polygon class="cls-2" points="19.65 14.5 19.65 20.61 14.36 17.56 14.36 41.99 12.49 40.92 12.59 34.86 3.78 29.78 2.01 28.76 2.01 34.86 0.26 33.85 0.25 27.74 0.25 21.63 7.3 25.7 7.3 7.38 19.65 14.5"/><polygon class="cls-1" points="19.65 20.61 19.65 38.94 17.88 39.95 17.88 33.85 16.12 34.86 16.15 38.92 16.12 40.97 14.36 41.99 14.36 17.56 19.65 20.61"/><polygon class="cls-1" points="7.3 25.7 0.25 21.63 5.54 18.58 7.3 19.59 7.3 25.7"/><polygon class="cls-1" points="24.94 11.45 12.59 4.32 7.3 7.38 12.59 10.43 19.65 14.5 24.94 11.45"/><polygon class="cls-2" points="17.88 39.95 16.15 38.96 16.12 34.86 17.88 33.85 17.88 39.95"/><polygon class="cls-3" points="21.41 15.52 21.41 16.54 22.29 16.03 22.29 15.01 21.41 15.52"/><polygon class="cls-3" points="23.17 14.5 23.17 15.52 24.05 15.01 24.05 13.99 23.17 14.5"/><polygon class="cls-3" points="10.83 11.45 12.59 12.47 12.59 14.5 10.83 13.48 10.83 11.45"/><polygon class="cls-4" points="12.59 6.36 12.59 2.29 14.36 1.27 14.36 5.34 12.59 6.36"/><polygon class="cls-3" points="12.59 6.36 10.83 5.34 10.83 1.27 12.59 2.29 12.59 6.36"/><polygon class="cls-4" points="10.83 1.27 12.59 0.25 14.36 1.27 12.59 2.29 10.83 1.27"/><polygon class="cls-4" points="9.07 8.39 9.07 4.32 10.83 3.3 10.83 7.38 9.07 8.39"/><polygon class="cls-3" points="9.07 8.39 7.3 7.38 7.3 3.3 9.07 4.32 9.07 8.39"/><polygon class="cls-4" points="9.07 2.29 10.83 3.3 9.07 4.32 7.3 3.3 9.07 2.29"/><polygon class="cls-4" points="7.3 7.38 10.83 9.41 5.54 12.47 5.54 8.39 7.3 7.38"/><polygon class="cls-5" points="18.15 24.44 19.69 23.55 19.69 21.78 18.15 22.67 18.15 24.44"/><polygon class="cls-5" points="15.25 28 16.82 27.09 16.82 28.87 15.25 29.77 15.25 28"/><polygon class="cls-5" points="5.54 20.61 3.78 21.63 5.54 22.65 7.3 21.63 5.54 20.61"/><polygon class="cls-5" points="14.36 9.41 12.59 10.43 14.36 11.45 16.12 10.43 14.36 9.41"/><polygon class="cls-5" points="12.59 6.36 14.36 7.38 16.12 6.36 14.36 5.34 12.59 6.36"/><polygon class="cls-5" points="18.15 13.6 19.69 12.71 21.23 13.6 19.69 14.48 18.15 13.6"/><polygon class="cls-6" points="12.56 22.62 12.56 24.7 14.36 25.7 14.36 23.66 12.56 22.62"/><polygon class="cls-6" points="10.83 27.74 9.06 26.72 9.06 28.75 10.83 29.77 10.83 27.74"/><polygon class="cls-6" points="7.3 15.52 9.06 16.54 9.07 18.58 7.3 17.56 7.3 15.52"/><polygon class="cls-6" points="5.54 28.76 5.54 30.79 3.78 29.78 3.78 27.73 5.54 28.76"/><polygon class="cls-6" points="9.07 22.65 9.07 24.68 7.3 23.66 7.3 21.63 9.07 22.65"/><polygon class="cls-6" points="12.59 34.86 12.59 32.83 14.35 33.85 14.35 35.88 12.59 34.86"/><polygon class="cls-7" points="3.78 25.7 3.78 23.67 2.01 22.65 2.01 24.68 3.78 25.7"/></g></g></svg>